<svg width="36" height="47" viewBox="0 0 36 47" fill="none" xmlns="http://www.w3.org/2000/svg">
<path d="M18.0065 1.124C15.2124 1.93434 12.3795 2.62705 9.52069 3.21521C6.7654 3.77722 3.95836 4.2216 1.09959 4.56143V28.0876C1.92747 31.7472 3.84194 35.0278 6.71365 37.9685C9.57243 40.9093 13.3884 43.5103 18.0065 45.8367C22.6245 43.5103 26.4405 40.9093 29.2993 37.9685C32.171 35.0278 34.0855 31.7472 34.9133 28.0876V4.56143C32.0546 4.2216 29.2475 3.77722 26.4922 3.21521L26.4405 3.20214C23.5817 2.62705 20.7747 1.92127 17.9935 1.124H18.0065ZM18.0065 5.54168L5.65293 8.48245V26.1009C6.20916 29.3423 7.59328 32.087 9.71472 34.4266C11.8103 36.74 14.6044 38.6613 18.0065 40.2427C21.4085 38.6613 24.2026 36.753 26.2982 34.4266C28.4067 32.087 29.8038 29.3423 30.36 26.1009V8.48245L18.0065 5.54168ZM11.3575 12.7433L9.15849 15.4357L11.3575 17.9975L13.5566 15.4357L11.3575 12.7433ZM30.1918 17.5008H28.9241V18.7817H30.1918V17.5008ZM27.8505 19.2783H26.5828V20.5592H27.8505V19.2783ZM25.4056 20.886H24.138V22.1668H25.4056V20.886ZM22.8961 22.5328H21.6284V23.8137H22.8961V22.5328ZM20.6583 24.245H19.3906V25.5258H20.6583V24.245ZM18.1746 25.8526H16.9069V27.1335H18.1746V25.8526ZM15.7298 27.4994H14.4621V28.7803H15.7298V27.4994ZM13.5566 29.107H12.2889V30.3879H13.5566V29.107ZM11.1118 30.963H9.84408V32.2439H11.1118V30.963ZM30.1918 10.5214H28.9241V11.8022H30.1918V10.5214ZM27.8505 12.2989H26.5828V13.5798H27.8505V12.2989ZM25.4056 13.9065H24.138V15.1874H25.4056V13.9065ZM22.8961 15.5534H21.6284V16.8342H22.8961V15.5534ZM20.6583 17.2655H19.3906V18.5464H20.6583V17.2655ZM18.1746 18.8732H16.9069V20.154H18.1746V18.8732ZM15.7298 20.52H14.4621V21.8009H15.7298V20.52ZM13.5566 22.1276H12.2889V23.4085H13.5566V22.1276ZM11.1118 23.9836H9.84408V25.2644H11.1118V23.9836ZM8.654 25.6827H7.38631V26.9635H8.654V25.6827ZM25.2504 26.5584L23.0514 29.2508L25.2504 31.8125L27.4495 29.2508L25.2504 26.5584ZM4.98028 7.46298L17.8771 4.39152C17.9547 4.37845 18.0453 4.36538 18.1229 4.39152L30.9938 7.44991C31.2525 7.50219 31.4466 7.72438 31.4466 7.99886V26.0878C31.4466 26.114 31.4466 26.1532 31.4336 26.1793C30.8515 29.656 29.3639 32.6098 27.1002 35.1193C24.8623 37.6026 21.8613 39.6415 18.2264 41.3014C18.0841 41.3668 17.9288 41.3668 17.7736 41.3014C14.1387 39.6415 11.1376 37.6026 8.89978 35.1193C6.64898 32.6229 5.16138 29.6821 4.56634 26.2185C4.5534 26.1793 4.5534 26.1271 4.5534 26.0878V7.99886C4.5534 7.75052 4.72157 7.51526 4.98028 7.46298ZM9.30078 2.09118C12.1984 1.50303 15.0442 0.797244 17.8512 -0.0261713C17.9418 -0.0523114 18.0453 -0.0523114 18.1488 -0.0261713C20.9429 0.784174 23.7758 1.48996 26.6604 2.07811L26.6992 2.09118C29.5839 2.67933 32.5202 3.13679 35.4825 3.47661C35.7671 3.48968 35.9999 3.73801 35.9999 4.02555V28.1006C35.9999 28.1398 35.9999 28.1791 35.987 28.2183C35.1203 32.1132 33.1023 35.5898 30.0754 38.7005C27.0743 41.785 23.0772 44.5036 18.2393 46.9085C18.097 46.9869 17.9159 46.9869 17.7607 46.9085C12.9228 44.5036 8.93858 41.785 5.92458 38.7005C2.91058 35.6029 0.89262 32.1393 0.0259323 28.2705C0.0129967 28.2183 6.10352e-05 28.166 6.10352e-05 28.1006V4.02555C6.10352e-05 3.75108 0.207031 3.50275 0.491615 3.47661C3.46681 3.13679 6.4032 2.67933 9.30078 2.09118Z" fill="#8302FB"/>
</svg>
