<svg width="45" height="47" viewBox="0 0 45 47" fill="none" xmlns="http://www.w3.org/2000/svg">
<path d="M20.9447 38.3748H19.6797V39.632H20.9447V38.3748ZM18.0208 1.24674V16.4875C18.7155 16.2608 19.462 16.1371 20.2396 16.1371C21.0795 16.1371 21.8986 16.2814 22.6451 16.5493V1.154C21.9089 1.09217 21.1728 1.07156 20.447 1.08186C19.6175 1.10247 18.8088 1.154 18.0208 1.23644V1.24674ZM20.955 2.236H19.6901V3.49318H20.955V2.236ZM20.955 13.664H19.6901V14.9212H20.955V13.664ZM20.955 10.7993H19.6901V12.0564H20.955V10.7993ZM20.955 7.97575H19.6901V9.23293H20.955V7.97575ZM20.955 5.06981H19.6901V6.32699H20.955V5.06981ZM20.955 19.6716H19.6901V20.9288H20.955V19.6716ZM23.1013 20.4239H21.8363V21.6811H23.1013V20.4239ZM23.9515 22.3303H22.6865V23.5875H23.9515V22.3303ZM23.0494 24.4634H21.7845V25.7205H23.0494V24.4634ZM20.9758 25.432H19.7109V26.6892H20.9758V25.432ZM18.757 24.587H17.492V25.8442H18.757V24.587ZM18.0519 22.3097H16.787V23.5668H18.0519V22.3097ZM18.7362 20.4033H17.4713V21.6605H18.7362V20.4033ZM16.9218 16.9615V1.40131C14.4127 1.8032 12.142 2.59666 10.1202 3.77141C7.2171 5.46139 4.84277 7.94483 3.08016 11.1908C2.00186 13.1796 1.35903 15.3436 1.15167 17.5798C0.944301 19.8365 1.19314 22.1654 1.88781 24.4634C2.39586 26.143 3.16311 27.7197 4.12736 29.2963C5.10197 30.8935 6.28396 32.4908 7.61109 34.1911C8.61681 35.4895 9.3737 36.7466 9.88174 37.9523C10.4105 39.2095 10.6697 40.4151 10.6697 41.5383V46.9896H9.57069V41.5383C9.57069 40.5594 9.34259 39.498 8.86565 38.3748C8.39908 37.2516 7.69404 36.0768 6.74016 34.8609C5.40265 33.14 4.19993 31.5118 3.19421 29.8631C2.17812 28.204 1.37977 26.5346 0.840618 24.7725C0.104471 22.3406 -0.144367 19.8777 0.0733666 17.487C0.2911 15.0963 0.975405 12.7881 2.12628 10.6756C3.9822 7.25441 6.50169 4.6267 9.58106 2.83367C12.6708 1.04065 16.3101 0.0823033 20.4366 -0.000134775C23.008 -0.0516586 25.6104 0.350227 28.0884 1.25705C30.3798 2.10204 32.5571 3.40044 34.4753 5.18316C36.3208 6.91436 37.6065 8.86196 38.4567 10.9126C39.4105 13.2003 39.8045 15.591 39.8253 17.8889L44.4703 25.3496C44.5739 25.5144 44.6673 25.6793 44.7295 25.8236C44.9783 26.3388 45.0612 26.8335 44.9887 27.2766C44.9057 27.7609 44.6258 28.1628 44.1488 28.4513C44.0659 28.5028 43.983 28.544 43.8896 28.5853L39.6283 30.5638V37.1588C39.6283 38.6118 39.0891 39.9823 38.1767 40.9819C37.2954 41.9505 36.0616 42.5585 34.6308 42.5585H29.9132V46.9896H28.8142V42.4967H27.6426V41.2395H28.9075V41.4765H34.6204C35.7298 41.4765 36.6733 41.0025 37.368 40.2606C38.1041 39.4568 38.5396 38.3439 38.5396 37.1691V29.894C39.1721 29.5951 43.3298 27.73 43.4438 27.6166C43.4956 27.596 43.5475 27.5651 43.5786 27.5445C43.7652 27.4311 43.8793 27.2766 43.9104 27.1014C43.9518 26.885 43.8896 26.6067 43.7445 26.2976C43.6823 26.1739 43.6201 26.0503 43.5475 25.9369L38.7366 18.2187V18.0641C38.7366 15.8589 38.3634 13.5506 37.4509 11.3454C36.663 9.43902 35.4602 7.61508 33.7287 5.99723C31.9247 4.30725 29.8717 3.09129 27.7152 2.28752C26.4295 1.8135 25.092 1.48375 23.7545 1.29826V17.0645C24.3144 17.384 24.8328 17.7653 25.2786 18.2187C26.5643 19.4965 27.3626 21.2586 27.3626 23.2165C27.3626 24.8446 26.8027 26.3491 25.8696 27.5445L31.1574 32.9545C31.5929 32.7175 32.0906 32.5732 32.6193 32.5732C33.4488 32.5732 34.1953 32.903 34.7345 33.4388C35.2736 33.9747 35.6054 34.7166 35.6054 35.5307C35.6054 36.355 35.2736 37.097 34.7345 37.6328C34.1953 38.1687 33.4488 38.4984 32.6193 38.4984C31.8002 38.4984 31.0537 38.1687 30.5146 37.6328C29.9754 37.097 29.6436 36.355 29.6436 35.5307C29.6436 34.8093 29.9029 34.1498 30.328 33.6449L25.1438 28.3379C23.8685 29.5333 22.1474 30.2649 20.2604 30.2649C18.3008 30.2649 16.5174 29.4715 15.2318 28.1937C13.9461 26.9159 13.1477 25.1538 13.1477 23.1959C13.1477 21.2483 13.9461 19.4759 15.2318 18.1981C15.7294 17.7034 16.3101 17.2706 16.9425 16.9409L16.9218 16.9615ZM24.4906 18.9812C23.402 17.8992 21.8986 17.2294 20.2396 17.2294C18.5807 17.2294 17.0773 17.8992 15.9886 18.9812C14.9 20.0632 14.226 21.5574 14.226 23.2062C14.226 24.8549 14.9 26.3491 15.9886 27.4311C17.0773 28.5131 18.5807 29.1829 20.2396 29.1829C21.8986 29.1829 23.402 28.5131 24.4906 27.4311C25.5793 26.3491 26.2532 24.8549 26.2532 23.2062C26.2532 21.5574 25.5793 20.0632 24.4906 18.9812ZM33.9361 34.2117C33.594 33.8716 33.117 33.6655 32.5986 33.6655C32.0802 33.6655 31.6032 33.8716 31.2611 34.2117C30.9189 34.5517 30.7116 35.0257 30.7116 35.541C30.7116 36.0562 30.9189 36.5302 31.2611 36.8703C31.6032 37.2103 32.0802 37.4164 32.5986 37.4164C33.117 37.4164 33.594 37.2103 33.9361 36.8703C34.2783 36.5302 34.4856 36.0562 34.4856 35.541C34.4856 35.0257 34.2783 34.5517 33.9361 34.2117ZM26.1392 41.2498H24.8742V42.507H26.1392V41.2498ZM23.0494 40.58H21.7845V41.8372H23.0494V40.58Z" fill="#8302FB"/>
</svg>
