<svg width="50" height="47" viewBox="0 0 50 47" fill="none" xmlns="http://www.w3.org/2000/svg">
<path d="M24.7104 1.0887H14.0526L15.2856 14.3391L19.3675 8.12334C19.5356 7.8721 19.8719 7.79766 20.1241 7.96516C20.3763 8.13265 20.451 8.46763 20.2829 8.71887L15.4817 16.0234L19.8065 29.0505C19.8999 29.3389 19.7411 29.646 19.4609 29.7391C19.1713 29.8321 18.8631 29.6739 18.7697 29.3948L14.4729 16.4328L1.79745 14.3205L23.0011 42.8592V42.7941H24.2714V44.0596H23.8978L24.8225 45.2972L30.371 28.5666C30.4644 28.2782 30.7726 28.1293 31.0622 28.2223C31.3517 28.3154 31.5012 28.6224 31.4078 28.9109L26.5973 43.4175L48.2212 14.3205L35.2562 16.4793C35.2188 16.4886 35.1721 16.4979 35.1348 16.4979H25.6912C25.3923 16.4979 25.1401 16.256 25.1401 15.9489C25.1401 15.6512 25.383 15.3999 25.6912 15.3999H34.126L24.7291 1.098L24.7104 1.0887ZM23.6176 39.8816H22.3472V41.1471H23.6176V39.8816ZM22.7208 36.9133H21.4505V38.1788H22.7208V36.9133ZM21.7868 34.0473H20.5164V35.3128H21.7868V34.0473ZM20.7499 31.1441H19.4796V32.4096H20.7499V31.1441ZM32.3512 25.5332H31.0809V26.7987H32.3512V25.5332ZM33.2199 23.0487H31.9496V24.3142H33.2199V23.0487ZM34.0886 20.4247H32.8182V21.6902H34.0886V20.4247ZM35.06 17.903H33.7897V19.1685H35.06V17.903ZM18.5175 15.2883H17.2471V16.5538H18.5175V15.2883ZM21.273 15.2883H20.0027V16.5538H21.273V15.2883ZM24.1313 15.2883H22.861V16.5538H24.1313V15.2883ZM21.9549 5.1271H20.6845V6.3926H21.9549V5.1271ZM23.7764 2.62403H22.506V3.88953H23.7764V2.62403ZM25.4764 46.7395C25.3456 46.9442 25.0841 47.0465 24.8412 46.9628C24.7198 46.9256 24.617 46.8418 24.5516 46.7395L0.134784 13.8925C0.041376 13.7715 -0.00532798 13.6226 0.0226944 13.4645C0.041376 13.3435 0.106762 13.2318 0.190829 13.1574L13.0438 0.195407C13.1465 0.0744407 13.296 0 13.4641 0H36.5732C36.7134 0 36.8535 0.0558305 36.9656 0.167492L49.8465 13.1574C49.9306 13.2411 49.996 13.3435 50.0147 13.4645C50.0427 13.6226 49.996 13.7808 49.9026 13.8925L25.4857 46.7395H25.4764ZM34.7331 14.3391L35.9661 1.0887H26.0275L34.7331 14.3391ZM48.3333 13.1853L36.9936 1.74936L35.7326 15.279L48.3333 13.1853ZM13.0251 1.74936L1.68536 13.1853L14.2861 15.279L13.0251 1.74936Z" fill="#8302FB"/>
</svg>
