<svg width="37" height="50" viewBox="0 0 37 50" fill="none" xmlns="http://www.w3.org/2000/svg">
<path fill-rule="evenodd" clip-rule="evenodd" d="M5.05976 0.0425281L32.2699 0.000244141L29.7178 2.3582L13.3893 2.69895L13.1677 4.66889L12.9647 2.69895L7.16751 2.76984L5.061 0.0412844L5.05976 0.0425281ZM32.5038 0.000244141L34.8194 11.4679L37.0002 29.2719L34.3095 27.6005L33.5137 13.5087L32.1746 7.78919L30.5903 2.85192L32.5558 0.255191L32.505 0.00148779L32.5038 0.000244141ZM36.0707 30.288L18.9451 38.8952L18.7941 36.7363L10.331 32.9245L10.1948 31.6373L9.70967 31.1884L9.45719 32.4557L3.81219 28.0109L0.998979 29.7694L4.18597 1.05486L6.55486 3.41405L3.69462 27.5234L0.997742 29.7681L11.5142 35.7886L18.9427 38.8928L19.2954 36.6231L30.9864 29.7159L32.6176 30.0268L32.0545 29.0655L33.8553 28.2745L36.0683 30.2855L36.0707 30.288Z" fill="#8301FE"/>
<path fill-rule="evenodd" clip-rule="evenodd" d="M8.12157 4.99606L13.5104 5.71862L14.3829 3.93896L28.7522 4.58317L31.5753 10.5999L32.4652 26.9277L18.9115 34.4419L10.9496 31.6088L10.0362 29.6414L9.12284 29.8516L5.86035 27.2026L6.68216 20.2568L8.12281 4.99482L8.12157 4.99606ZM11.1959 27.8281C10.9311 27.4613 11.0697 26.8245 11.4633 26.2151L18.8039 14.8917L14.7963 12.535C14.0884 12.1184 13.899 11.4008 14.2307 10.8288L16.8991 6.2111C17.185 5.71489 17.7481 5.74101 18.1925 5.87656L16.711 9.67466L18.3756 7.19856L20.9067 8.33649L18.5699 6.71105L18.7791 6.16509L22.455 8.13627C22.5911 7.93107 22.8151 7.79551 23.0379 7.93604L25.288 9.34634C25.5034 9.48065 25.46 9.75176 25.3029 9.97686L28.6495 11.9281L28.3017 12.3062L26.3759 11.2441L27.9539 12.8298L26.246 15.6516L29.2572 12.2913C29.6842 12.5873 29.954 13.1034 29.6483 13.6008L26.8487 18.1501C26.4922 18.7296 25.6308 18.7296 24.8672 18.3205L21.3101 16.414L14.6564 28.3368C14.2938 28.986 13.8371 29.3317 13.4398 29.2248C12.5462 28.9835 11.7219 28.5569 11.1972 27.8294L11.1959 27.8281Z" fill="#8302FB"/>
<path fill-rule="evenodd" clip-rule="evenodd" d="M30.3166 43.4345V33.1807L28.022 34.3335V44.7652L30.3166 43.4345ZM7.68463 43.4345V33.5973L9.97927 34.9106V44.7652L7.68463 43.4345V43.4345ZM11.5734 45.6905V35.8147L18.9462 38.8952L26.4279 35.1357V45.6905L19.0006 49.9997L11.5734 45.6905V45.6905Z" fill="#4B0091"/>
<path fill-rule="evenodd" clip-rule="evenodd" d="M7.85295 7.83889L14.0957 11.1756C13.9918 11.6693 14.2245 12.2004 14.795 12.5361L18.8026 14.8928L14.4064 21.6744L6.92346 17.6749L7.85171 7.83765L7.85295 7.83889ZM26.9217 18.0293L32.131 20.8126L32.4639 26.9288L28.4279 29.1662L17.4622 23.3061L21.3089 16.4138L24.8659 18.3203C25.6308 18.7295 26.491 18.7295 26.8474 18.15L26.9217 18.0293V18.0293Z" fill="#911AFF"/>
</svg>
