<svg width="269" height="372" viewBox="0 0 269 372" fill="none" xmlns="http://www.w3.org/2000/svg">
<g opacity="0.2">
<path fill-rule="evenodd" clip-rule="evenodd" d="M31.1101 0.316301L232.918 0.00170898L213.99 17.5449L92.8872 20.0801L91.2441 34.7364L89.7387 20.0801L46.7426 20.6075L31.1193 0.307049L31.1101 0.316301ZM234.653 0.00170898L251.828 85.3211L268.002 217.783L248.046 205.347L242.144 100.505L232.212 57.9515L220.462 21.2182L235.039 1.89852L234.662 0.0109617L234.653 0.00170898ZM261.108 225.342L134.093 289.381L132.973 273.318L70.205 244.958L69.1953 235.382L65.597 232.041L63.7244 241.47L21.8573 208.401L0.992639 221.484L24.6295 7.84802L42.1988 25.4004L20.9853 204.774L0.983459 221.475L78.9805 266.267L134.075 289.362L136.691 272.476L223.399 221.086L235.498 223.399L231.321 216.247L244.677 210.362L261.09 225.324L261.108 225.342Z" fill="#8301FE"/>
<path fill-rule="evenodd" clip-rule="evenodd" d="M53.8183 37.1707L93.7852 42.5466L100.257 29.3059L206.829 34.0988L227.767 78.8635L234.367 200.342L133.844 256.247L74.7931 235.17L68.0188 220.532L61.2444 222.096L37.0476 202.387L43.1427 150.711L53.8275 37.1615L53.8183 37.1707ZM76.6198 207.041C74.6554 204.312 75.6835 199.574 78.6026 195.041L133.045 110.795L103.323 93.2607C98.072 90.1611 96.6675 84.8222 99.1276 80.566L118.918 46.2106C121.039 42.5188 125.215 42.7131 128.511 43.7216L117.523 71.9795L129.869 53.5573L148.641 62.0235L131.31 49.9302L132.862 45.8683L160.124 60.5338C161.134 59.0071 162.796 57.9986 164.448 59.0442L181.136 69.5367C182.733 70.536 182.412 72.5531 181.246 74.2279L206.067 88.7454L203.488 91.5582L189.205 83.6564L200.908 95.4536L188.241 116.448L210.574 91.4472C213.741 93.6493 215.742 97.4892 213.475 101.19L192.711 135.037C190.068 139.349 183.679 139.349 178.015 136.304L151.634 122.12L102.285 210.826C99.5958 215.656 96.2086 218.228 93.262 217.432C86.6345 215.637 80.521 212.464 76.629 207.051L76.6198 207.041Z" fill="#8302FB"/>
<path fill-rule="evenodd" clip-rule="evenodd" d="M218.431 323.153V246.864L201.413 255.442V333.053L218.431 323.153ZM50.5776 323.153V249.964L67.5962 259.735V333.053L50.5776 323.153ZM79.4192 339.937V266.462L134.101 289.381L189.59 261.41V339.937L134.505 371.998L79.4192 339.937Z" fill="#4B0091"/>
<path fill-rule="evenodd" clip-rule="evenodd" d="M51.8261 58.3213L98.1268 83.1463C97.3557 86.8196 99.0814 90.7706 103.313 93.2688L133.036 110.803L100.431 161.258L44.9324 131.501L51.8169 58.312L51.8261 58.3213ZM193.252 134.138L231.888 154.846L234.358 200.351L204.424 216.996L123.095 173.397L151.624 122.119L178.006 136.303C183.678 139.347 190.058 139.347 192.702 135.036L193.252 134.138Z" fill="#911AFF"/>
</g>
</svg>
