<svg width="168" height="32" viewBox="0 0 168 32" fill="none" xmlns="http://www.w3.org/2000/svg">
<path d="M74.5542 21.1451V14.7725C74.5542 12.3721 73.053 10.7578 70.6344 10.7365C69.9453 10.6908 69.2569 10.8342 68.6408 11.1518C68.0247 11.4694 67.5035 11.9495 67.1315 12.5421C66.7925 11.9672 66.3075 11.496 65.7277 11.1782C65.148 10.8604 64.4948 10.7078 63.837 10.7365C63.2637 10.7072 62.6928 10.8309 62.1808 11.0954C61.6688 11.36 61.2336 11.7561 60.9181 12.2447V10.9914H58.7495V21.1451H60.9388V15.5159C60.9388 13.7528 61.898 12.8184 63.3783 12.8184C64.817 12.8184 65.5469 13.7741 65.5469 15.4947V21.1451H67.7362V15.5159C67.7362 13.7528 68.737 12.8184 70.1757 12.8184C71.656 12.8184 72.3649 13.7741 72.3649 15.4947V21.1451H74.5542ZM106.956 10.9914H103.411V7.91146H101.222V10.9914H99.1995V13.0094H101.222V17.6401C101.222 19.998 102.119 21.4 104.683 21.4C105.641 21.4029 106.581 21.1305 107.394 20.614L106.768 18.7234C106.187 19.0768 105.527 19.2742 104.85 19.297C103.766 19.297 103.411 18.6172 103.411 17.5977V13.0094H106.956V10.9914ZM125.45 10.7365C124.922 10.7206 124.399 10.8504 123.936 11.1121C123.474 11.3738 123.089 11.7577 122.823 12.2234V10.9914H120.676V21.1451H122.844V15.4522C122.844 13.7741 123.553 12.8395 124.971 12.8395C125.435 12.833 125.895 12.9196 126.326 13.0944L126.993 11.0127C126.498 10.8321 125.976 10.7387 125.45 10.7365ZM97.4898 11.7987C96.2624 11.0551 94.8511 10.6864 93.4239 10.7365C90.9009 10.7365 89.2747 11.9685 89.2747 13.9865C89.2747 15.6434 90.484 16.663 92.7149 16.9817L93.7367 17.1304C94.9251 17.3002 95.4881 17.6188 95.4881 18.1924C95.4881 18.9784 94.6957 19.4244 93.2154 19.4244C92.0247 19.4593 90.857 19.0852 89.9001 18.3624L88.8785 20.0828C90.1415 20.9816 91.6545 21.4434 93.1946 21.4C96.0719 21.4 97.7399 20.0191 97.7399 18.0862C97.7399 16.3018 96.4264 15.3672 94.2579 15.0485L93.2363 14.8998C92.298 14.7724 91.5474 14.5814 91.5474 13.9017C91.5474 13.1581 92.2562 12.7121 93.4448 12.7121C94.5362 12.7288 95.6054 13.0286 96.5515 13.583L97.4898 11.7987ZM155.579 10.7365C155.051 10.7206 154.528 10.8504 154.065 11.1121C153.603 11.3738 153.218 11.7577 152.952 12.2234V10.9914H150.805V21.1451H152.973V15.4522C152.973 13.7741 153.682 12.8395 155.1 12.8395C155.564 12.8329 156.024 12.9196 156.455 13.0944L157.122 11.0127C156.627 10.8321 156.105 10.7387 155.579 10.7365ZM127.64 16.0682C127.64 19.1484 129.746 21.4 132.957 21.4C134.259 21.4666 135.538 21.0347 136.543 20.1891L135.5 18.4048C134.751 18.987 133.837 19.3073 132.894 19.3181C131.163 19.297 129.892 18.0225 129.892 16.0682C129.892 14.114 131.163 12.8394 132.894 12.8184C133.837 12.8292 134.751 13.1495 135.5 13.7317L136.543 11.9474C135.538 11.1018 134.259 10.6699 132.957 10.7365C129.746 10.7365 127.64 12.9881 127.64 16.0682ZM147.948 16.0682V10.9914H145.78V12.2234C145.41 11.7375 144.931 11.349 144.383 11.0903C143.835 10.8316 143.234 10.7103 142.631 10.7365C139.837 10.7365 137.648 12.9671 137.648 16.0682C137.648 19.1695 139.837 21.4 142.631 21.4C143.234 21.4263 143.835 21.3049 144.383 21.0463C144.931 20.7876 145.41 20.399 145.78 19.913V21.1451H147.948V16.0682ZM139.879 16.0682C139.879 14.2839 141.026 12.8184 142.902 12.8184C144.695 12.8184 145.905 14.2202 145.905 16.0682C145.905 17.9162 144.695 19.3181 142.902 19.3181C141.026 19.3181 139.879 17.8525 139.879 16.0682ZM113.712 10.7365C110.792 10.7365 108.749 12.9032 108.749 16.0682C108.749 19.297 110.876 21.4 113.858 21.4C115.345 21.4532 116.8 20.9465 117.944 19.9767L116.881 18.3411C116.057 19.0134 115.038 19.387 113.983 19.4031C112.586 19.4031 111.314 18.7447 111.001 16.9178H118.403C118.424 16.6418 118.445 16.3657 118.445 16.0682C118.424 12.9032 116.506 10.7365 113.712 10.7365ZM113.67 12.7121C115.067 12.7121 115.963 13.6041 116.193 15.1761H111.022C111.251 13.7104 112.127 12.7121 113.67 12.7121ZM168.069 16.0682V6.91309H165.9V12.2234C165.53 11.7375 165.051 11.349 164.504 11.0903C163.956 10.8316 163.355 10.7103 162.752 10.7365C159.958 10.7365 157.769 12.9671 157.769 16.0682C157.769 19.1695 159.958 21.4 162.752 21.4C163.355 21.4262 163.956 21.3049 164.504 21.0462C165.051 20.7875 165.53 20.399 165.9 19.913V21.1451H168.069V16.0682ZM160 16.0682C160 14.2839 161.147 12.8184 163.023 12.8184C164.816 12.8184 166.025 14.2202 166.025 16.0682C166.025 17.9162 164.816 19.3181 163.023 19.3181C161.147 19.3181 160 17.8525 160 16.0682ZM86.7727 16.0682V10.9914H84.6041V12.2234C84.234 11.7375 83.755 11.3489 83.2072 11.0902C82.6595 10.8316 82.0589 10.7103 81.4557 10.7365C78.6618 10.7365 76.4725 12.9671 76.4725 16.0682C76.4725 19.1695 78.6618 21.4 81.4557 21.4C82.0589 21.4263 82.6595 21.305 83.2072 21.0463C83.755 20.7876 84.234 20.399 84.6041 19.913V21.1451H86.7727V16.0682ZM78.7036 16.0682C78.7036 14.2839 79.8503 12.8184 81.7269 12.8184C83.5199 12.8184 84.7292 14.2202 84.7292 16.0682C84.7292 17.9162 83.5199 19.3181 81.7269 19.3181C79.8503 19.3181 78.7036 17.8525 78.7036 16.0682Z" fill="#676B8B"/>
<path d="M18.5236 16.0006C18.5215 13.6885 19.0358 11.4063 20.0275 9.3267C21.0191 7.24712 22.4622 5.42462 24.2475 3.99719C22.0367 2.22684 19.3816 1.12589 16.5857 0.820168C13.7897 0.514448 10.9658 1.01628 8.43655 2.26833C5.90734 3.52038 3.77492 5.47213 2.28304 7.90048C0.791157 10.3288 0 13.1358 0 16.0006C0 18.8653 0.791157 21.6723 2.28304 24.1006C3.77492 26.529 5.90734 28.4807 8.43655 29.7328C10.9658 30.9848 13.7897 31.4867 16.5857 31.181C19.3816 30.8752 22.0367 29.7743 24.2475 28.0039C22.4623 26.5765 21.0192 24.754 20.0275 22.6744C19.0358 20.5948 18.5215 18.3126 18.5236 16.0006Z" fill="#676B8B"/>
<path d="M48.5247 16.0006C48.5248 18.8653 47.7337 21.6722 46.2419 24.1006C44.7501 26.5289 42.6178 28.4807 40.0886 29.7328C37.5595 30.9848 34.7355 31.4867 31.9396 31.181C29.1437 30.8752 26.4887 29.7743 24.278 28.0039C26.0616 26.5751 27.5036 24.7523 28.4951 22.673C29.4866 20.5937 30.0018 18.3122 30.0018 16.0006C30.0018 13.6889 29.4866 11.4074 28.4951 9.3281C27.5036 7.24886 26.0616 5.42607 24.278 3.9972C26.4887 2.22685 29.1437 1.12588 31.9396 0.820161C34.7355 0.514451 37.5595 1.0163 40.0886 2.26836C42.6178 3.52043 44.7501 5.47219 46.2419 7.90054C47.7337 10.3289 48.5248 13.1358 48.5247 16.0006Z" fill="#676B8B" fill-opacity="0.6"/>
<path fill-rule="evenodd" clip-rule="evenodd" d="M24.2788 3.99811H24.2463C22.4616 5.4254 21.0189 7.24757 20.0274 9.3267C19.0358 11.4063 18.5215 13.6886 18.5236 16.0006C18.5215 18.3126 19.0358 20.5948 20.0275 22.6744C21.0191 24.754 22.4622 26.5765 24.2475 28.0039L24.2463 28.0049H24.2789C24.2785 28.0046 24.2781 28.0043 24.2777 28.0039C26.0614 26.5751 27.5034 24.7523 28.4949 22.673C29.4864 20.5937 30.0016 18.3122 30.0016 16.0006C30.0016 13.6889 29.4864 11.4074 28.4949 9.3282C27.5036 7.24931 26.062 5.42684 24.2788 3.99811Z" fill="#676B8B" fill-opacity="0.8"/>
</svg>
