<svg width="73" height="26" viewBox="0 0 73 26" fill="none" xmlns="http://www.w3.org/2000/svg">
<path d="M37.7539 8.5743C37.7122 11.9934 40.6803 13.9015 42.9162 15.0359C45.2134 16.2 45.985 16.9463 45.9763 17.9871C45.9587 19.5803 44.1437 20.2833 42.4449 20.3107C39.4812 20.3586 37.7582 19.4776 36.3882 18.8111L35.3207 24.0128C36.6951 24.6724 39.2401 25.2476 41.8793 25.2727C48.0741 25.2727 52.1272 22.0887 52.1491 17.1518C52.1732 10.8864 43.8259 10.5395 43.8829 7.7389C43.9026 6.8899 44.6808 5.9837 46.3862 5.7532C47.2301 5.6368 49.5603 5.5478 52.2017 6.8145L53.2386 1.78174C51.8181 1.24309 49.9921 0.727249 47.719 0.727249C41.8881 0.727249 37.7867 3.95463 37.7539 8.5743ZM63.2015 1.16092C62.0704 1.16092 61.1168 1.84793 60.6916 2.90243L51.8422 24.9029H58.0326L59.2645 21.3583H66.8293L67.544 24.9029H73L68.2388 1.16092H63.2015ZM64.0674 7.5746L65.8539 16.4898H60.9612L64.0674 7.5746ZM30.2482 1.16092L25.3687 24.9029H31.2676L36.1449 1.16092H30.2482ZM21.5217 1.16092L15.3817 17.3207L12.8981 3.58031C12.6065 2.04651 11.4557 1.16092 10.1777 1.16092H0.140292L0 1.85022C2.06054 2.31583 4.40166 3.06676 5.81992 3.87018C6.68798 4.36091 6.93568 4.79001 7.22065 5.9563L11.9248 24.9029H18.159L27.7164 1.16092H21.5217Z" fill="#676B8B"/>
</svg>
