<svg width="74" height="30" viewBox="0 0 74 30" fill="none" xmlns="http://www.w3.org/2000/svg">
<path d="M13.5212 3.86773C12.654 4.88094 11.2662 5.68037 9.87859 5.56606C9.70515 4.1961 10.3845 2.74022 11.1795 1.84104C12.0467 0.79929 13.5646 0.05708 14.7932 0C14.9378 1.42719 14.3741 2.82584 13.5214 3.86773H13.5212ZM14.7788 5.83734C12.7695 5.72318 11.0494 6.96471 10.0954 6.96471C9.12703 6.96471 7.66698 5.89443 6.07699 5.92297C4.01005 5.95151 2.08749 7.1074 1.03227 8.9486C-1.13599 12.6308 0.4686 18.0829 2.56445 21.0799C3.59076 22.5642 4.81942 24.1912 6.43832 24.1341C7.97064 24.077 8.57767 23.1494 10.428 23.1494C12.2926 23.1494 12.8275 24.1341 14.4464 24.1056C16.1231 24.077 17.1783 22.6214 18.2046 21.137C19.3753 19.453 19.8524 17.8116 19.8813 17.7259C19.8524 17.6974 16.6435 16.4844 16.6146 12.8306C16.5857 9.7764 19.1442 8.3207 19.2598 8.2351C17.8142 6.12275 15.5594 5.89443 14.7788 5.83734ZM26.3861 1.69833V23.9487H29.884V16.3417H34.7264C39.1495 16.3417 42.2573 13.3446 42.2573 9.0058C42.2573 4.66716 39.2073 1.69847 34.842 1.69847H26.3859L26.3861 1.69833ZM29.884 4.60994H33.9169C36.9525 4.60994 38.687 6.20838 38.687 9.0199C38.687 11.8315 36.9525 13.4444 33.9024 13.4444H29.884V4.60994ZM48.6463 24.1198C50.8435 24.1198 52.8815 23.021 53.8067 21.2797H53.8789V23.9486H57.1169V12.8734C57.1169 9.6623 54.515 7.5928 50.5109 7.5928C46.7961 7.5928 44.0497 9.6908 43.9485 12.5737H47.0997C47.3599 11.2036 48.6462 10.3044 50.4098 10.3044C52.5491 10.3044 53.7489 11.2892 53.7489 13.1019V14.3291L49.3834 14.586C45.3217 14.8286 43.1247 16.47 43.1247 19.3245C43.1247 22.2075 45.394 24.1198 48.6463 24.1198ZM49.5858 21.4795C47.7213 21.4795 46.5359 20.5947 46.5359 19.2388C46.5359 17.8403 47.6778 17.0267 49.8605 16.8983L53.7489 16.6557V17.9115C53.7489 19.9952 51.9565 21.4795 49.5859 21.4795H49.5858ZM61.4388 30C64.8502 30 66.4546 28.7157 67.8567 24.8192L74 7.8068H70.4441L66.3245 20.9514H66.2523L62.1327 7.8068H58.4756L64.402 24.0057L64.084 24.9905C63.5492 26.6603 62.6819 27.3026 61.1353 27.3026C60.8607 27.3026 60.3259 27.274 60.109 27.2455V29.9144C60.3113 29.9715 61.1785 30 61.4388 30Z" fill="#676B8B"/>
</svg>
