<svg width="70" height="24" viewBox="0 0 70 24" fill="none" xmlns="http://www.w3.org/2000/svg">
<path fill-rule="evenodd" clip-rule="evenodd" d="M50.2812 5.7661C51.8682 5.7661 53.1544 4.47552 53.1544 2.88412C53.1544 1.29178 51.8682 0 50.2812 0C48.6962 0 47.4105 1.29178 47.4105 2.88412C47.4105 4.47552 48.6962 5.7661 50.2812 5.7661ZM28.2764 7.3225C28.1467 7.6493 27.2135 10.2952 24.9568 13.0374V1.31223L18.9437 2.50516V23.7583H24.9568V17.1888C26.6984 19.8108 27.5583 23.7583 27.5583 23.7583H34.7608C34.0484 20.7852 30.9319 15.3034 30.9319 15.3034C33.7289 11.7438 34.9574 7.9508 35.1529 7.3225H28.2764ZM44.0845 7.1006C38.6986 7.2741 35.9647 9.6996 35.9647 14.5213V23.7583H41.8403V16.2257C41.8403 13.3386 42.217 12.101 45.6301 11.983V7.1852C45.0556 7.0628 44.0845 7.1006 44.0845 7.1006ZM8.85915 9.6628C8.12261 9.6141 6.41746 9.5035 6.41746 7.9626C6.41746 6.1032 8.8724 6.1032 9.79317 6.1032C11.4122 6.1032 13.5091 6.5835 15.0065 7.033C15.0065 7.033 15.8418 7.3286 16.5526 7.6314L16.6188 7.6493V2.55691L16.528 2.52995C14.7608 1.90931 12.7059 1.31223 8.89613 1.31223C2.32745 1.31223 0 5.1535 0 8.4441C0 10.3411 0.809977 14.8054 8.33282 15.3204C8.9706 15.3597 10.663 15.4576 10.663 17.05C10.663 18.3647 9.27741 19.14 6.94685 19.14C4.39283 19.14 1.91536 18.4862 0.410545 17.8661V23.111C2.66329 23.7038 5.2028 24 8.1791 24C14.6018 24 17.4784 20.3657 17.4784 16.7637C17.4784 12.6795 14.2595 10.0259 8.85915 9.6628ZM47.3685 23.7583H53.1967V7.341H47.3685V23.7583ZM64.171 2.35891V23.7583H70V1.31223L64.171 2.35891ZM55.6656 2.35891L61.4891 1.31223V23.7583H55.6656V2.35891Z" fill="#676B8B"/>
</svg>
