<svg width="48" height="36" viewBox="0 0 48 36" fill="none" xmlns="http://www.w3.org/2000/svg">
<path d="M36.1564 21.8572H39.6203C39.7193 21.8572 39.9501 21.8242 40.0492 21.8242C40.7091 21.6924 41.2699 21.0989 41.2699 20.2747C41.2699 19.4835 40.7091 18.8901 40.0492 18.7253C39.9501 18.6923 39.7524 18.6923 39.6203 18.6923H36.1564V21.8572Z" fill="#676B8B" fill-opacity="0.6"/>
<path d="M39.2246 0C35.9257 0 33.2205 2.67034 33.2205 6.00001V12.2308H41.6988C41.8968 12.2308 42.1277 12.2308 42.2927 12.2638C44.2062 12.3627 45.6247 13.3517 45.6247 15.066C45.6247 16.4176 44.668 17.5715 42.8865 17.8023V17.8681C44.8329 18.0001 46.3176 19.0879 46.3176 20.7693C46.3176 22.5824 44.668 23.7692 42.4906 23.7692H33.1875V35.9672H41.9958C45.2948 35.9672 48 33.2967 48 29.967V0H39.2246Z" fill="#676B8B" fill-opacity="0.6"/>
<path d="M40.8409 15.4616C40.8409 14.6704 40.2801 14.1429 39.6203 14.044C39.5542 14.044 39.3893 14.011 39.2904 14.011H36.1564V16.9121H39.2904C39.3893 16.9121 39.5873 16.9121 39.6203 16.8793C40.2801 16.7803 40.8409 16.2528 40.8409 15.4616Z" fill="#676B8B" fill-opacity="0.6"/>
<path d="M6.03714 0C2.73816 0 0.033016 2.67034 0.033016 6.00001V20.8022C1.71561 21.6264 3.46407 22.1538 5.21253 22.1538C7.29083 22.1538 8.41245 20.9012 8.41245 19.1869V12.1978H13.559V19.1539C13.559 21.8572 11.8763 24.066 6.16922 24.066C2.70514 24.066 0 23.3078 0 23.3078V35.9342H8.80834C12.1073 35.9342 14.8125 33.2637 14.8125 29.934V0H6.03714Z" fill="#676B8B"/>
<path d="M22.6297 0C19.3308 0 16.6256 2.67034 16.6256 6.00001V13.8462C18.1431 12.5605 20.7824 11.7363 25.0381 11.9341C27.3143 12.033 29.7557 12.6594 29.7557 12.6594V15.1978C28.535 14.5714 27.0833 14.011 25.203 13.8792C21.97 13.6484 20.0236 15.2308 20.0236 18.0001C20.0236 20.8022 21.97 22.3846 25.203 22.121C27.0833 21.989 28.535 21.3956 29.7557 20.8022V23.3406C29.7557 23.3406 27.3473 23.967 25.0381 24.066C20.7824 24.2638 18.1431 23.4396 16.6256 22.154V36H25.4339C28.7329 36 31.4381 33.3297 31.4381 30V0H22.6297Z" fill="#676B8B" fill-opacity="0.8"/>
</svg>
