<svg width="114" height="34" viewBox="0 0 114 34" fill="none" xmlns="http://www.w3.org/2000/svg">
<path fill-rule="evenodd" clip-rule="evenodd" d="M20.3718 10.7275H9.21263V8.172H9.22004L9.21855 8.1021C9.21855 5.13589 11.7155 2.73176 14.7967 2.73176C17.8763 2.73176 20.3748 5.13589 20.3748 8.1021L20.3732 8.172V10.7275H20.3718ZM18.5332 15.878C18.5332 16.0411 18.5332 16.1779 18.1981 16.1779H16.4515C16.2602 16.1779 16.1756 16.2129 16.1756 16.3979V22.1905C16.1756 22.4905 15.9977 22.572 15.5677 22.572H13.8418C13.3629 22.572 13.2309 22.5254 13.2309 22.1905V16.3979C13.2309 16.2129 13.1479 16.1779 12.9566 16.1779H11.3419C11.0082 16.1779 11.0082 16.0411 11.0082 15.878V14.451C11.0082 14.1743 11.2232 14.1393 11.5584 14.1393H17.9831C18.3182 14.1393 18.5332 14.1743 18.5332 14.451V15.878ZM27.2933 10.7275H23.453V8.72534C23.4589 8.59865 23.4619 8.47197 23.4619 8.34382C23.4619 3.73506 19.5815 0 14.7952 0C10.0074 0 6.12702 3.73506 6.12702 8.34382L6.13147 8.42246H6.12702V10.7275H2.29707C1.01894 10.7275 -0.233983 11.329 0.0373609 12.7429L2.87831 24.9921C3.13038 26.0304 3.91476 26.7468 5.19585 26.7468H24.3975C25.6771 26.7468 26.4644 26.0304 26.7135 24.9921L29.5545 12.7429C29.8258 11.329 28.5744 10.7275 27.2948 10.7275H27.2933ZM12.4035 30.6946C12.4035 32.5206 10.8674 34 8.97242 34C7.07598 34 5.53986 32.5206 5.53986 30.6946C5.53986 28.8699 7.07598 27.3919 8.97242 27.3919C10.8674 27.3919 12.4035 28.8699 12.4035 30.6946ZM20.6194 34C22.5129 34 24.049 32.5206 24.049 30.6946H24.0505C24.0505 28.8699 22.5129 27.3919 20.6194 27.3919C18.723 27.3919 17.1839 28.8699 17.1839 30.6946C17.1839 32.5206 18.7215 34 20.6194 34Z" fill="#676B8B" fill-opacity="0.6"/>
<path fill-rule="evenodd" clip-rule="evenodd" d="M43.1512 14.6083H46.4667C47.1043 14.6083 47.1043 14.3462 47.1043 14.0389V11.3261C47.1043 10.8019 46.695 10.7349 46.0589 10.7349H33.8559C33.2198 10.7349 32.8105 10.8019 32.8105 11.3261V14.0404C32.8105 14.3462 32.8105 14.6083 33.4452 14.6083H36.5144C36.8777 14.6083 37.0363 14.6738 37.0363 15.0247V26.0304C37.0363 26.6639 37.287 26.7512 38.1959 26.7512H41.4699C42.2883 26.7512 42.6293 26.5983 42.6293 26.0304V15.0247C42.6293 14.6738 42.7879 14.6083 43.1512 14.6083ZM56.8549 15.3335C56.8549 14.9622 56.5138 14.9622 56.3329 14.9622L51.3568 14.9796C48.5129 14.9796 47.9242 16.1795 47.9242 17.5483V25.7246C47.9242 26.2925 48.1733 26.7512 49.0377 26.7512H52.0834C52.9016 26.7512 52.901 26.1705 52.9003 25.6158C52.9003 25.6006 52.9003 25.5855 52.9003 25.5703V20.3413C52.9003 19.4413 53.2221 18.9681 54.2007 18.5968C54.7227 18.4002 55.719 18.3711 56.3329 18.3711C56.7185 18.3711 56.8549 18.1307 56.8549 17.8686V15.3335ZM58.3554 23.2725C58.3554 26.0727 60.0798 26.7746 61.6486 26.7746L61.6501 26.7716H67.5306C68.3921 26.7716 70.3553 26.3188 70.3553 23.2361V16.0077C70.3553 15.4384 70.1062 14.9782 69.2418 14.9782H66.1976C65.378 14.9782 65.3786 15.5623 65.3792 16.1177C65.3792 16.1321 65.3792 16.1463 65.3792 16.1605V21.6328C65.3792 22.1352 65.1508 22.6827 64.4243 22.6827C63.72 22.6827 63.5376 22.1119 63.5376 21.5877V15.8999C63.5376 15.3524 62.992 14.9796 62.4241 14.9796H59.2421C58.6045 14.9796 58.3554 15.549 58.3554 16.162V23.2725ZM72.4 26.3581C72.9012 26.5998 75.0808 27.0585 77.4681 27.0585C79.6492 27.0585 82.8312 26.6202 82.8312 23.2069C82.8312 20.5815 80.3549 19.4661 78.8085 18.7875C78.1278 18.4802 77.6949 18.24 77.6949 18.0434C77.6949 17.6721 78.0374 17.5411 78.8085 17.5411C79.2861 17.5411 80.0217 17.6384 80.5988 17.7149C80.928 17.7584 81.2056 17.7952 81.3544 17.8032C81.9667 17.825 82.4219 15.0684 81.9904 14.9155C81.6494 14.7845 80.9451 14.5428 78.5593 14.5428C75.5597 14.5428 72.4459 15.5926 72.4459 18.24C72.4459 20.7343 74.5859 21.6157 76.0627 22.224C76.1154 22.2457 76.1672 22.2671 76.2181 22.2881C76.2389 22.2968 76.2597 22.3055 76.2804 22.3141C76.9331 22.587 77.4458 22.8013 77.4458 23.0977C77.4458 23.5564 76.8764 23.6875 75.877 23.6875C74.262 23.6875 73.4135 23.4793 72.8901 23.3509C72.8023 23.3293 72.7236 23.31 72.652 23.2943C71.97 23.1414 72.1732 26.2489 72.4 26.3581ZM90.2627 18.24H91.6491C92.2614 18.24 92.2614 17.9342 92.2614 17.3211V16.0747C92.2614 15.5272 92.1042 15.003 91.5349 15.003H90.104V12.922C90.104 12.3105 90.104 12.0047 89.2174 12.1357L86.6033 12.5522C86.0591 12.6381 85.4912 12.9235 85.4912 13.471V15.003H84.6505C84.0129 15.003 83.8082 15.2432 83.8082 15.8548V17.2774C83.8082 17.8264 83.9225 18.1759 84.4904 18.1759H85.2407C85.2407 18.1759 85.2169 22.5721 85.2407 23.8856C85.2628 25.199 86.0813 27.0585 89.081 27.0585C90.2627 27.0585 91.5571 26.7964 91.8981 26.642C92.1265 26.5329 91.7855 23.5142 91.4445 23.5579C91.3302 23.5798 91.2176 23.5798 91.1035 23.5798C90.6037 23.5798 90.2627 23.4035 90.2627 22.9885V18.24ZM94.9675 26.7512H98.2399C99.0593 26.7512 99.059 26.3348 99.0583 25.7879C99.0583 25.7736 99.0583 25.7594 99.0583 25.745V11.2606C99.0583 10.78 98.9902 10.4961 98.013 10.4961H94.7629C94.3076 10.4961 94.0807 10.78 94.0807 11.1077V25.9868C94.0807 26.6639 94.1712 26.7512 94.9675 26.7512ZM106.42 31.127C106.874 31.127 107.307 30.6697 107.489 30.2533L113.897 15.747C114.126 15.2432 114.012 14.9811 113.192 14.9811H110.398C109.943 14.9811 109.511 15.4193 109.33 15.8562L107.466 20.3208L105.83 15.8548C105.671 15.4179 105.216 14.9811 104.761 14.9811H101.057C100.353 14.9811 100.148 15.2432 100.353 15.747L104.853 26.4687L103.148 30.3626C102.921 30.8649 103.035 31.127 103.852 31.127H106.42Z" fill="#676B8B"/>
</svg>
