<svg width="84" height="24" viewBox="0 0 84 24" fill="none" xmlns="http://www.w3.org/2000/svg">
<path d="M35.424 3.45142C37.8805 3.45142 40.2579 4.6554 41.6843 6.5819L43.0315 3.53169C40.8918 1.44474 38.1975 0.240723 35.0278 0.240723C30.1938 0.240723 25.9938 3.29088 24.2503 7.6253H21.6353L20.0503 11.0769H23.2994C23.2994 11.3176 23.2994 11.7993 23.2994 12.04C23.2994 12.4414 23.2994 12.8427 23.2994 13.2441H21.5561L19.9712 16.6956H24.0127C25.756 20.9497 29.956 23.9196 34.6315 23.9196C37.0089 23.9196 39.2277 23.1169 41.2089 21.8327V17.6588C39.7824 19.4246 37.5636 20.5484 35.0278 20.5484C32.1749 20.5484 29.6391 19.0233 28.2127 16.6956H36.7711L38.356 13.2441H27.1825C27.1825 12.8427 27.024 12.4414 27.024 12.04C27.024 11.7993 27.024 11.4782 27.024 11.2374H39.3862L40.9711 7.7859H28.2127C29.7976 5.2173 32.4127 3.45142 35.424 3.45142Z" fill="#676B8B" fill-opacity="0.6"/>
<path d="M18.6226 7.6251H12.8377C12.8377 6.6619 12.6793 6.0198 12.4415 5.6987C12.0453 5.1368 11.0944 4.9763 9.58866 4.9763C8.16226 4.9763 7.13206 5.1368 6.57735 5.3776C6.02263 5.6184 5.78489 6.3408 5.78489 7.304C5.78489 8.1067 6.02263 8.8291 6.41886 9.0699C6.97357 9.0699 7.3698 9.2305 7.84527 9.2305L9.03395 9.391C11.4906 9.5515 13.0755 9.6318 13.6302 9.7923C15.6113 10.0331 17.0377 10.5147 17.9886 11.3977C18.6226 12.1201 19.0188 13.0031 19.1773 14.1268C19.3359 14.8492 19.3358 15.4913 19.3358 16.294C19.3358 18.2205 19.1773 19.585 18.7811 20.5481C18.1471 22.1535 16.7208 23.2773 14.4226 23.6786C13.4717 23.8392 12.0453 23.9194 10.0642 23.9194C6.81509 23.9194 4.51698 23.7589 3.40754 23.3576C1.82264 22.7956 0.792455 21.8325 0.396222 20.3074C0.158491 19.5047 0 18.1402 0 16.2137H5.78489C5.78489 16.4545 5.78489 16.6151 5.78489 16.7756C5.78489 17.8993 6.02263 18.3809 6.73584 18.8626C7.13206 19.0231 7.68678 19.1033 8.16226 19.1033H10.3019C11.332 19.1033 12.0453 19.1033 12.3622 18.9429C12.917 18.702 13.3132 18.3809 13.3924 17.8191C13.5509 17.5783 13.5509 17.0967 13.5509 16.6954C13.5509 15.5716 13.1547 15.09 12.5208 14.7689C12.283 14.6084 10.9358 14.5281 8.71697 14.3676C6.89433 14.207 5.54716 14.1268 4.9132 13.9663C3.09056 13.5649 1.74339 12.8425 1.10944 11.6385C0.237731 10.8358 0 9.3107 0 7.2238C0 5.6987 0.158491 4.4947 0.396222 3.69201C0.633964 2.88933 1.34717 2.08666 1.98113 1.60504C2.93207 0.882641 4.19999 0.481302 5.6264 0.401042C6.97357 0.240502 8.2415 0.240501 9.82639 0.240501C12.2037 0.240501 13.8679 0.401041 14.9773 0.641841C17.4339 1.36425 18.7811 3.2104 18.7811 6.5014C18.7811 6.8224 18.6226 7.1435 18.6226 7.6251Z" fill="#676B8B"/>
<path d="M63 4.4148C62.3661 2.48836 61.0189 1.28435 59.1963 0.561939C58.2453 0.321139 57.0567 0.160599 55.551 0.160599H43.9812V24C43.9812 24 50.1623 24 50.3209 24V17.8195H54.9963C56.9774 17.8195 58.1661 17.6589 58.4038 17.6589C60.7812 17.4181 62.2076 16.1339 63 14.1272C63.3963 13.0034 63.5547 11.398 63.5547 8.9098C63.5547 6.8228 63.3963 5.2977 63 4.4148ZM56.9774 10.8362C56.8189 11.398 56.5812 11.7994 56.1849 12.0401C55.9473 12.2007 55.1547 12.281 53.9661 12.281H50.1623V5.4583H54.1246C54.7585 5.4583 55.1547 5.4583 55.3133 5.4583C56.1058 5.6188 56.6605 6.0201 56.8982 6.6623C57.0567 7.0636 57.136 7.8663 57.136 8.8295C57.0567 9.7124 57.0567 10.4348 56.9774 10.8362Z" fill="#676B8B"/>
<path d="M77.0265 0H67.7548L60.7812 23.9197H67.2001L68.2303 19.8261H76.4718L77.6604 23.9197H84L77.0265 0ZM69.6567 15.1705L72.4303 4.7358L75.2831 15.1705H69.6567Z" fill="#676B8B"/>
</svg>
